<svg id="Layer_1" data-name="Layer 1" xmlns="http://www.w3.org/2000/svg" viewBox="0 0 2471 2497.89"><defs><style>.cls-1{fill:#1a1918;}</style></defs><title>steamicon</title><path class="cls-1" d="M1233.37,0C583.19,0,50.58,505.92,0,1148.79l663.35,276.77a345.67,345.67,0,0,1,197.16-61.45q9.87,0,19.5.54l295-431.56v-6c0-259.68,209.36-471,466.72-471s466.71,211.32,466.71,471-209.36,471.07-466.71,471.07c-3.57,0-7-.09-10.6-.17l-420.77,302.86c.27,5.62.44,11.23.44,16.75,0,195-157.17,353.62-350.32,353.62C691,2071.18,549.09,1949,517,1787.29l-474.47-198c146.94,524.25,624.25,908.59,1190.8,908.59C1916.93,2497.91,2471,1938.68,2471,1249S1916.93,0,1233.37,0ZM775.59,1895.09l-152-63.4c26.9,56.63,73.56,104,135.45,130,133.75,56.27,288-7.75,343.74-142.84a266,266,0,0,0,.44-203c-26.72-65.54-77.21-116.66-141.95-143.91-64.38-27-133.31-26-193.87-2.93l157.09,65.54c98.67,41.51,145.33,155.84,104.19,255.4s-154.42,146.67-253.08,105.16Zm1177.17-968c0-173-139.54-313.89-311-313.89S1330.73,754,1330.73,927.05s139.54,313.82,311.06,313.82S1952.76,1100.08,1952.76,927.05Zm-544.1-.53c0-130.19,104.63-235.71,233.59-235.71S1875.9,796.33,1875.9,926.52s-104.63,235.72-233.67,235.72-233.59-105.53-233.59-235.71Z" transform="translate(0 -0.02)"/></svg>