<svg id="Layer_1" data-name="Layer 1" xmlns="http://www.w3.org/2000/svg" viewBox="0 0 537.85 537.55"><title>xboxicon</title><path d="M260.86,537.37a13,13,0,0,0-1.84-.3,238.25,238.25,0,0,1-27.58-2.31,266.29,266.29,0,0,1-77.88-23.18A270.39,270.39,0,0,1,93,472.23c-5.28-4.53-8-10.29-9-17-1.22-8.57.35-16.86,2.75-25,3.64-12.42,9.28-24,15.61-35.21,10.7-19,23.28-36.74,36.71-53.89a809.21,809.21,0,0,1,78.13-85.72,604.63,604.63,0,0,1,48.47-42.1c2.94-2.26,2.12-2.35,5.2,0a594.9,594.9,0,0,1,45.73,39.5,835.17,835.17,0,0,1,65.8,69.74c16.07,19.15,31.24,39,44.49,60.21,7.61,12.18,14.52,24.73,19.71,38.15a92.3,92.3,0,0,1,5.89,22c.76,6.17.67,12.29-1.4,18.24a25.19,25.19,0,0,1-7.59,11.12,267.57,267.57,0,0,1-107.78,56.45,260,260,0,0,1-35.42,6.65c-7.58.89-15.17,1.54-22.8,1.72a10.11,10.11,0,0,0-1.62.3Z" transform="translate(0.73 0.18)"/><path d="M-.73,261.93c.25-2.28.61-4.55.72-6.84a264.63,264.63,0,0,1,17.56-83.15A268.32,268.32,0,0,1,78.82,78.08a10.89,10.89,0,0,1,7.17-3A34.74,34.74,0,0,1,99.6,77a94.69,94.69,0,0,1,18.64,8.58c12.15,7,23.3,15.48,34.09,24.41,13.05,10.81,25.41,22.39,37.44,34.32.49.48.93,1,1.46,1.61-.41.61-.72,1.15-1.11,1.62-25.74,31.11-48.64,64.24-69.83,98.57a705.09,705.09,0,0,0-41.84,77.25,345.67,345.67,0,0,0-18.92,50.19A162.44,162.44,0,0,0,54,401.71c-.93,9.53-.71,19,2.1,28.27,0,.13.15.27.13.39-.08.44-.2.88-.31,1.32a5.48,5.48,0,0,1-1.43-.49,4.68,4.68,0,0,1-.92-1.13A267.61,267.61,0,0,1,2.74,309.55,256,256,0,0,1,0,282.22c-.11-2.43-.48-4.85-.73-7.28Z" transform="translate(0.73 0.18)"/><path d="M537.13,268.78c-.44,8.59-.59,17.2-1.37,25.76a260.19,260.19,0,0,1-12.44,59,267.74,267.74,0,0,1-40.1,76.38,9.9,9.9,0,0,1-1.51,1.72c-.61.5-1.28.15-1.29-.64a4.78,4.78,0,0,1,.26-1.43c2.6-8.65,2.84-17.51,2.07-26.41-1.66-19.2-7.37-37.39-14.2-55.26a514.74,514.74,0,0,0-30.45-64.44,916.85,916.85,0,0,0-84.92-127.8c-2.22-2.8-4.53-5.52-6.78-8.29-1-1.28-1.05-1.5.09-2.63,18.56-18.29,37.64-36,59.07-50.92a147.15,147.15,0,0,1,23.16-13.53,55,55,0,0,1,15.74-5,35.73,35.73,0,0,1,6.9-.15,10.35,10.35,0,0,1,6.83,3.25q53,53.39,71.22,126.35a266.52,266.52,0,0,1,6.17,35.72C536.58,249.89,536.85,259.32,537.13,268.78Z" transform="translate(0.73 0.18)"/><path d="M268.32,81.8c-.93-.55-1.83-1.06-2.72-1.6a407.33,407.33,0,0,0-61.83-30.91,204.06,204.06,0,0,0-35.1-10.5,98.6,98.6,0,0,0-25.86-1.92c-2.64.19-5.26.68-7.89,1a5.11,5.11,0,0,1-1.23.18c-.37,0-1-.29-1-.49a1.77,1.77,0,0,1,.47-1.2,5,5,0,0,1,1.24-.78A265.77,265.77,0,0,1,216.48,4.88,272.19,272.19,0,0,1,248.25.63,258.78,258.78,0,0,1,278,0,267,267,0,0,1,402.16,35.55a7.33,7.33,0,0,1,1.42.89,1.3,1.3,0,0,1,.41,1.05,1.27,1.27,0,0,1-.95.59,5.13,5.13,0,0,1-1.44-.22,75.5,75.5,0,0,0-21.93-.75c-18.42,1.82-35.76,7.6-52.75,14.58a412.23,412.23,0,0,0-56,28.58C270.1,80.78,269.25,81.26,268.32,81.8Z" transform="translate(0.73 0.18)"/></svg>