<?xml version="1.0" encoding="utf-8"?>
<!-- Generator: Adobe Illustrator 21.1.0, SVG Export Plug-In . SVG Version: 6.00 Build 0)  -->
<svg version="1.1" id="Layer_1" xmlns="http://www.w3.org/2000/svg" xmlns:xlink="http://www.w3.org/1999/xlink" x="0px" y="0px"
	 viewBox="0 0 268 106.9" style="enable-background:new 0 0 268 106.9;" xml:space="preserve">
<style type="text/css">
	.st0{fill:#FFFFFF;}
	.st1{fill:none;stroke:#FFFFFF;stroke-width:16;stroke-miterlimit:10;}
</style>
<g>
	<path class="st0" d="M18.2,12.9h19.2v75.3h45.8v16.5h-65C18.2,104.7,18.2,12.9,18.2,12.9z"/>
	<path class="st0" d="M96.1,13h65.4v16.1h-46.4v21.1h40.6v15.9h-40.6v38.5h-19V13z"/>
	<path class="st0" d="M235.6,41.5c-1.5-6.3-5-10.6-10.6-13.1c-3.2-1.4-6.7-2.1-10.5-2.1c-7.4,0-13.5,2.8-18.2,8.4
		s-7.1,13.9-7.1,25.1c0,11.3,2.6,19.2,7.7,23.9c5.1,4.7,11,7,17.6,7c6.4,0,11.7-1.8,15.8-5.5s6.6-8.5,7.6-14.5h-21.2V55.4h38.2v49.2
		h-12.7l-1.9-11.5c-3.7,4.3-7,7.4-10,9.2c-5.1,3.1-11.3,4.6-18.7,4.6c-12.2,0-22.1-4.2-29.9-12.6c-8.1-8.5-12.1-20-12.1-34.7
		c0-14.8,4.1-26.7,12.3-35.7s19-13.4,32.4-13.4c11.7,0,21,3,28.1,8.9s11.1,13.3,12.2,22.1H235.6z"/>
</g>
<line class="st1" x1="18" y1="130" x2="255" y2="130"/>
</svg>
